<svg width="1200" height="1600" viewBox="0 0 1200 1600" fill="none" xmlns="http://www.w3.org/2000/svg">
  <defs>
    <linearGradient id="bg" x1="0" y1="0" x2="1" y2="1">
      <stop offset="0%" stop-color="#0b6b5f"/>
      <stop offset="100%" stop-color="#11425a"/>
    </linearGradient>
    <radialGradient id="glow" cx="0" cy="0" r="1" gradientUnits="userSpaceOnUse" gradientTransform="translate(260 360) rotate(45) scale(460 460)">
      <stop offset="0%" stop-color="#7ee7d1" stop-opacity="0.35"/>
      <stop offset="100%" stop-color="#7ee7d1" stop-opacity="0"/>
    </radialGradient>
  </defs>
  <rect width="1200" height="1600" fill="url(#bg)"/>
  <rect width="1200" height="1600" fill="url(#glow)"/>
  <g opacity="0.6">
    <circle cx="240" cy="300" r="130" stroke="#c7fff0" stroke-opacity="0.35" stroke-width="2"/>
    <circle cx="840" cy="360" r="180" stroke="#c7fff0" stroke-opacity="0.22" stroke-width="2"/>
    <circle cx="560" cy="980" r="240" stroke="#c7fff0" stroke-opacity="0.18" stroke-width="2"/>
  </g>
  <g opacity="0.9">
    <rect x="260" y="620" width="680" height="520" rx="60" fill="#0d3b4f" fill-opacity="0.5" stroke="#78f0d4" stroke-opacity="0.22" stroke-width="2"/>
    <rect x="320" y="700" width="220" height="64" rx="32" fill="#7ee7d1" fill-opacity="0.18"/>
    <rect x="580" y="700" width="220" height="64" rx="32" fill="#7ee7d1" fill-opacity="0.18"/>
    <rect x="320" y="800" width="420" height="26" rx="13" fill="#ffffff" fill-opacity="0.3"/>
    <rect x="320" y="850" width="500" height="26" rx="13" fill="#ffffff" fill-opacity="0.22"/>
  </g>
  <g opacity="0.95">
    <path d="M560 400H640V480H720V560H640V640H560V560H480V480H560V400Z" fill="#ffffff" fill-opacity="0.85"/>
    <path d="M600 455C610 430 630 420 650 420C690 420 720 455 720 495C720 555 650 605 600 640C550 605 480 555 480 495C480 455 510 420 550 420C570 420 590 430 600 455Z" fill="#7ee7d1" fill-opacity="0.7"/>
  </g>
  <g opacity="0.55">
    <path d="M220 1150C360 1080 520 1060 680 1090" stroke="#9bf2df" stroke-width="3" stroke-linecap="round"/>
    <path d="M520 1200C690 1170 860 1180 980 1240" stroke="#9bf2df" stroke-width="3" stroke-linecap="round"/>
  </g>
</svg>
